<svg xmlns="http://www.w3.org/2000/svg" width="283.1" height="258.5"><g id="faf_x5F_logotype"><path d="M5.5 202.2H0v-7l5.5-1v-1.3c0-9.7 3.9-17 15.8-17 2 0 3.6.2 5 .5l-1.1 7.8c-.7-.2-1.5-.3-2.6-.3-4.2 0-6.8 3-6.8 9.2v1.4h6.9l-.5 7.9h-6.5V227H5.5v-24.8zM26.1 203.4c1.7-5.1 7.3-9.7 15.4-9.7 7.6 0 11.8 3.6 11.8 10.7 0 3.4-.3 7.4-.3 11.5 0 2.7.8 4 2.4 4 .5 0 .9-.1 1.2-.1l.5 7c-1.2.3-2.8.7-4.8.7-3.5 0-6.4-1.1-7.7-3.2-2.8 2.2-5.7 3.4-10 3.4-6.4 0-10.8-3.1-10.8-8.8 0-5.5 4-8.3 12.8-9.3l6.4-.7c.1-.8.1-2 .1-3.2 0-2.6-1.1-4-3.4-4-2.6 0-5 2.6-5.9 4.6l-.1.3-7.7-3 .1-.2zm12.7 11.5c-3.3.4-4.6 1.5-4.6 3.2s1.5 2.7 3.6 2.7 3.9-.7 5.3-1.5c-.1-.7-.2-1.7-.2-2.4s.1-1.8.1-2.5l-4.2.5zM87.4 224.8c-2.4 1.5-6.5 2.8-10.8 2.8-10.4 0-17-5.8-17-16 0-10.3 6.5-17.8 17.4-17.8 4.1 0 7.3.7 10.1 2.1l-2.4 7.3c-2.2-.9-4.1-1.5-6.6-1.5-4.1 0-7.7 3.1-7.7 9.8 0 5.1 3 8.1 7.8 8.1 2.6 0 4.6-.7 6.8-1.7l2.4 6.9zM120 224.6c-3.7 2-7.9 3-13.1 3-9.8 0-16.8-5.6-16.8-16 0-10.3 5.7-17.9 16-17.9 11.4 0 14.6 8.1 14.6 16.6v2.6h-19.9c.2 3.9 3 6.8 7.9 6.8 3.3 0 6.1-.9 9-2.1l2.3 7zm-9.5-17.7c-.1-3.8-1.6-6.5-4.6-6.5s-4.6 3-5 6.5h9.6zM134 212.2c1.1-3.2 4.6-6.1 9.7-6.1 4.8 0 7.4 2.3 7.4 6.7 0 2.1-.2 4.6-.2 7.2 0 1.7.5 2.5 1.5 2.5.3 0 .6 0 .8-.1l.3 4.4c-.8.2-1.8.5-3 .5-2.2 0-4-.7-4.8-2-1.8 1.4-3.5 2.1-6.2 2.1-4 0-6.8-1.9-6.8-5.5 0-3.4 2.5-5.2 8-5.8l4-.4c0-.5.1-1.2.1-2 0-1.6-.7-2.5-2.1-2.5-1.6 0-3.2 1.6-3.7 2.9l-.1.2-4.8-1.9-.1-.2zm2-15.9l6.7-.7 4 7.8-3.6.4-7.1-7.5zm6 23.1c-2.1.3-2.9.9-2.9 2s1 1.7 2.2 1.7c1.3 0 2.4-.4 3.3-1-.1-.4-.1-1.1-.1-1.5 0-.4 0-1.1 0-1.6l-2.5.4zM167.9 202.2h-5.5v-7l5.5-1v-1.3c0-9.7 3.9-17 15.8-17 2 0 3.6.2 5 .5l-1.1 7.8c-.7-.2-1.5-.3-2.6-.3-4.2 0-6.8 3-6.8 9.2v1.4h6.9l-.5 7.9h-6.5V227h-10.3v-24.8zM188.6 203.4c1.7-5.1 7.3-9.7 15.4-9.7 7.6 0 11.8 3.6 11.8 10.7 0 3.4-.3 7.4-.3 11.5 0 2.7.8 4 2.4 4 .5 0 .9-.1 1.2-.1l.5 7c-1.2.3-2.8.7-4.8.7-3.5 0-6.4-1.1-7.7-3.2-2.8 2.2-5.7 3.4-10 3.4-6.4 0-10.8-3.1-10.8-8.8 0-5.5 4-8.3 12.8-9.3l6.4-.7c.1-.8.1-2 .1-3.2 0-2.6-1.1-4-3.4-4-2.6 0-5 2.6-5.9 4.6l-.1.3-7.7-3 .1-.2zm12.7 11.5c-3.3.4-4.6 1.5-4.6 3.2s1.5 2.7 3.6 2.7 3.9-.7 5.3-1.5c-.1-.7-.2-1.7-.2-2.4s.1-1.8.1-2.5l-4.2.5zM249.9 224.8c-2.4 1.5-6.5 2.8-10.8 2.8-10.4 0-17-5.8-17-16 0-10.3 6.5-17.8 17.4-17.8 4.1 0 7.3.7 10.1 2.1l-2.4 7.3c-2.2-.9-4.1-1.5-6.6-1.5-4.1 0-7.7 3.1-7.7 9.8 0 5.1 3 8.1 7.8 8.1 2.6 0 4.6-.7 6.8-1.7l2.4 6.9zM282.4 224.6c-3.7 2-7.9 3-13.1 3-9.8 0-16.8-5.6-16.8-16 0-10.3 5.7-17.9 16-17.9 11.4 0 14.6 8.1 14.6 16.6v2.6h-19.9c.2 3.9 3 6.8 7.9 6.8 3.3 0 6.1-.9 9-2.1l2.3 7zm-9.4-17.7c-.1-3.8-1.6-6.5-4.6-6.5s-4.6 3-5 6.5h9.6z" class="st1"/></g><g id="faf_x5F_logo"><path d="M273.5 179c-2.9 0-5.6-1.3-7.3-3.6-.3-.3-.5-.7-.7-1-7-11.1-26.4-37-55.5-37h-26.9c-15.3 0-27.7-12.4-27.7-27.7V46.1c0-15.3 12.4-27.7 27.7-27.7h72c15.3 0 27.7 12.4 27.7 27.7V170c0 .1 0 .2 0 .4-.3 4.8-4.4 8.6-9.3 8.6z" class="st1"/><path d="M271.9 170.7c0 .1.1.1.1.2.3.5.9.7 1.4.7 1 0 1.8-.8 1.8-1.8V46.1c0-11.2-9.1-20.3-20.3-20.3h-72c-11.2 0-20.3 9.1-20.3 20.3v63.6c0 11.2 9.1 20.3 20.3 20.3h26.9c32.8 0 54.1 28.3 61.8 40.5.2 0 .3.1.3.2z" class="st0"/><path d="M162.5 106c-2.1 0-3.7-1.7-3.7-3.7s1.7-3.7 3.7-3.7c41.9 0 55-35.3 55.6-36.9.7-1.9 2.8-3 4.8-2.3 1.9.7 3 2.8 2.3 4.8-.2.4-3.8 10.7-13.4 21-9 9.4-24.7 20.8-49.3 20.8zM14.8 160.7c-4.9 0-9-3.9-9.3-8.7 0-.1 0-.2 0-.4V27.7C5.5 12.4 17.9 0 33.2 0h72C120.5 0 133 12.4 133 27.7v63.6c0 15.3-12.4 27.7-27.7 27.7H78.4c-9.7 0-34.4 3.6-55.5 37-.2.3-.4.7-.7 1-1.9 2.3-4.6 3.7-7.4 3.7z" class="st1"/><path d="M33.2 7.5C22.1 7.5 13 16.6 13 27.7v123.6c0 1 .8 1.8 1.8 1.8.6 0 1.1-.3 1.4-.7 0-.1.1-.1.1-.2s.1-.1.1-.2c7.7-12.2 29.1-40.5 61.8-40.5h26.9c11.2 0 20.3-9.1 20.3-20.3V27.7c0-11.2-9.1-20.3-20.3-20.3H33.2z" class="st2"/><path d="M125.8 87.6c-24.7 0-40.4-11.3-49.2-20.9-9.5-10.3-13.2-20.5-13.4-21-.7-1.9.3-4.1 2.3-4.8 1.9-.7 4.1.3 4.8 2.3C70.8 44.7 84 80 125.8 80c2.1 0 3.7 1.7 3.7 3.7s-1.6 3.9-3.7 3.9z" class="st1"/></g><g id="faf_x5F_desc"><path d="M6.4 242.6l2.4-.1 3.1 7 1.7 4.1 1.9-4.2 3.1-6.8H21l.5 15.7h-2.3l-.2-11.8-4.5 9.9-1.8.1-4.4-10.3v4.8l-.1 7.3H5.9l.5-15.7zM48.5 242.6l2.3-.1 6.1 15.8-2.4.1-1.8-5h-5.9l-1.7 4.8h-2.5l5.9-15.6zm3.4 8.9l-1.3-3.5-1-3-1 2.9-1.3 3.5h4.6zM78.1 242.6h4.8c3.6 0 5.6 1.5 5.6 4.4 0 2.2-1.2 3.6-2.9 4.4l4.7 7-2.6.2-4.3-6.6h-2.9v6.4h-2.3v-15.8zm5.9 7.3c1.2-.4 2.1-1.2 2.1-2.8 0-1.7-1.3-2.5-3.5-2.5h-2.2v5.3H84zM111.3 242.6h2.3v7.8l6.8-7.8h2.8l-6.1 7 6.5 8.8-2.6.2-5.5-7.4-1.8 1.5v5.7h-2.3v-15.8zM144.6 242.6h9.3l-.1 2h-6.9v4.6h6.4v2h-6.4v5h7.3l-.1 2.1h-9.5v-15.7zM179.8 244.6h-4.9v-2H187l-.1 2h-4.8v13.7h-2.3v-13.7zM208.5 242.6h2.3v15.7h-2.3v-15.7zM233.8 242.6l2-.1 8.8 12.2-.1-4.7v-7.4h2.2v15.7l-1.9.2-8.9-12.3.1 4.5v7.7h-2.2v-15.8zM277 250.7h5.8v6.4c-1.5.8-3.6 1.4-5.8 1.4-4.7 0-7.8-3.1-7.8-7.7 0-5.2 3.5-8.5 8.7-8.5 1.8 0 3.4.3 4.6.7l-.5 2c-1.1-.4-2.5-.7-3.9-.7-3.6 0-6.4 2-6.4 6.4 0 3.6 2.6 5.6 5.5 5.6 1.3 0 2.6-.2 3.3-.6v-3.2h-3.7l.2-1.8z" class="st1"/></g></svg>